<?xml version="1.0" encoding="UTF-8" standalone="no"?>
<!-- Created with Inkscape (http://www.inkscape.org/) -->

<svg
   version="1.1"
   id="svg1762"
   xml:space="preserve"
   width="491.86667"
   height="474.76666"
   viewBox="0 0 491.86667 474.76666"
   sodipodi:docname="petersen4.svg"
   inkscape:version="1.1.1 (3bf5ae0d25, 2021-09-20)"
   xmlns:inkscape="http://www.inkscape.org/namespaces/inkscape"
   xmlns:sodipodi="http://sodipodi.sourceforge.net/DTD/sodipodi-0.dtd"
   xmlns="http://www.w3.org/2000/svg"
   xmlns:svg="http://www.w3.org/2000/svg"><defs
     id="defs1766" /><sodipodi:namedview
     id="namedview1764"
     pagecolor="#ffffff"
     bordercolor="#666666"
     borderopacity="1.0"
     inkscape:pageshadow="2"
     inkscape:pageopacity="0.0"
     inkscape:pagecheckerboard="0"
     showgrid="false"
     inkscape:zoom="1.8767114"
     inkscape:cx="245.90888"
     inkscape:cy="237.11691"
     inkscape:window-width="1889"
     inkscape:window-height="1049"
     inkscape:window-x="15"
     inkscape:window-y="25"
     inkscape:window-maximized="1"
     inkscape:current-layer="g1772" /><g
     id="g1768"
     inkscape:groupmode="layer"
     inkscape:label="petersen2"
     transform="matrix(1.3333333,0,0,-1.3333333,0,474.76667)"><g
       id="g1770" /><g
       id="g1772"><g
         id="g1774"
         transform="matrix(1,0,0,-1,0,356.075)"><path
           d="M 354.449,245.641 175.418,348.059 22.688,209.438 l 84.64,-188.09401 205.039,22.375 z"
           style="fill:none;stroke:#000000;stroke-width:1.6;stroke-linecap:round;stroke-linejoin:miter;stroke-miterlimit:4;stroke-dasharray:none;stroke-opacity:1"
           id="path1776" /></g><g
         id="g1778"
         transform="matrix(1,0,0,-1,0,356.075)"><path
           d="m 145.648,93.641 40,168.8 68.801,-161.601 -148,88 172.801,17.601 z"
           style="fill:none;stroke:#000000;stroke-width:1.6;stroke-linecap:butt;stroke-linejoin:miter;stroke-miterlimit:4;stroke-dasharray:none;stroke-opacity:1"
           id="path1780" /></g><g
         id="g1782"
         transform="matrix(1,0,0,-1,0,356.075)"><path
           d="m 276.852,206.441 76,39.2"
           style="fill:none;stroke:#000000;stroke-width:1.6;stroke-linecap:butt;stroke-linejoin:miter;stroke-miterlimit:4;stroke-dasharray:none;stroke-opacity:1"
           id="path1784" /></g><g
         id="g1786"
         transform="matrix(1,0,0,-1,0,356.075)"><path
           d="m 250.449,102.441 56.801,-56.8"
           style="fill:none;stroke:#000000;stroke-width:1.6;stroke-linecap:butt;stroke-linejoin:miter;stroke-miterlimit:4;stroke-dasharray:none;stroke-opacity:1"
           id="path1788" /></g><g
         id="g1790"
         transform="matrix(1,0,0,-1,0,356.075)"><path
           d="M 110.449,24.039 148.051,92.84"
           style="fill:none;stroke:#000000;stroke-width:1.6;stroke-linecap:butt;stroke-linejoin:miter;stroke-miterlimit:4;stroke-dasharray:none;stroke-opacity:1"
           id="path1792" /></g><g
         id="g1794"
         transform="matrix(1,0,0,-1,0,356.075)"><path
           d="m 24.051,210.441 84,-22.402"
           style="fill:none;stroke:#000000;stroke-width:1.6;stroke-linecap:butt;stroke-linejoin:miter;stroke-miterlimit:4;stroke-dasharray:none;stroke-opacity:1"
           id="path1796" /></g><g
         id="g1798"
         transform="matrix(1,0,0,-1,0,356.075)"><path
           d="m 175.25,343.238 11.199,-83.199"
           style="fill:none;stroke:#000000;stroke-width:1.6;stroke-linecap:butt;stroke-linejoin:miter;stroke-miterlimit:4;stroke-dasharray:none;stroke-opacity:1"
           id="path1800" /></g><path
         d="m 124.051,332.036 c 0,-6.629 -5.375,-12 -12,-12 -6.629,0 -12,5.371 -12,12 0,6.625 5.371,12 12,12 6.625,0 12,-5.375 12,-12 z"
         style="fill:#000000;fill-opacity:1;fill-rule:nonzero;stroke:none"
         id="path1802" /><g
         id="g1804"
         transform="matrix(1,0,0,-1,0,356.075)"><path
           d="m 124.051,24.039 c 0,6.629 -5.375,12 -12,12 -6.629,0 -12,-5.371 -12,-12 0,-6.625 5.371,-12 12,-12 6.625,0 12,5.375 12,12 z"
           style="fill:none;stroke:#000000;stroke-width:1.6;stroke-linecap:round;stroke-linejoin:miter;stroke-miterlimit:4;stroke-dasharray:none;stroke-opacity:1"
           id="path1806" /></g><path
         d="m 39.25,148.036 c 0,-6.629 -5.371,-12 -12,-12 -6.629,0 -12,5.371 -12,12 0,6.625 5.371,12 12,12 6.629,0 12,-5.375 12,-12 z"
         style="fill:#0000fd;fill-opacity:1;fill-rule:nonzero;stroke:none"
         id="path1808" /><g
         id="g1810"
         transform="matrix(1,0,0,-1,0,356.075)"><path
           d="m 39.25,208.039 c 0,6.629 -5.371,12 -12,12 -6.629,0 -12,-5.371 -12,-12 0,-6.625 5.371,-12 12,-12 6.629,0 12,5.375 12,12 z"
           style="fill:none;stroke:#000000;stroke-width:1.6;stroke-linecap:round;stroke-linejoin:miter;stroke-miterlimit:4;stroke-dasharray:none;stroke-opacity:1"
           id="path1812" /></g><path
         d="m 363.25,113.634 c 0,-6.625 -5.371,-12 -12,-12 -6.629,0 -12,5.375 -12,12 0,6.629 5.371,12 12,12 6.629,0 12,-5.371 12,-12 z"
         style="fill:#000000;fill-opacity:1;fill-rule:nonzero;stroke:none"
         id="path1814" /><g
         id="g1816"
         transform="matrix(1,0,0,-1,0,356.075)"><path
           d="m 363.25,242.441 c 0,6.625 -5.371,12 -12,12 -6.629,0 -12,-5.375 -12,-12 0,-6.629 5.371,-12 12,-12 6.629,0 12,5.371 12,12 z"
           style="fill:none;stroke:#000000;stroke-width:1.6;stroke-linecap:round;stroke-linejoin:miter;stroke-miterlimit:4;stroke-dasharray:none;stroke-opacity:1"
           id="path1818" /></g><path
         d="m 186.449,14.434 c 0,-6.624997 -5.371,-11.999997 -12,-11.999997 -6.625,0 -12,5.375 -12,11.999997 0,6.629 5.375,12 12,12 6.629,0 12,-5.371 12,-12 z"
         style="fill:#000000;fill-opacity:1;fill-rule:nonzero;stroke:none"
         id="path1820" /><g
         id="g1822"
         transform="matrix(1,0,0,-1,0,356.075)"><path
           d="m 186.449,341.641 c 0,6.625 -5.371,12 -12,12 -6.625,0 -12,-5.375 -12,-12 0,-6.629 5.375,-12 12,-12 6.629,0 12,5.371 12,12 z"
           style="fill:none;stroke:#000000;stroke-width:1.6;stroke-linecap:round;stroke-linejoin:miter;stroke-miterlimit:4;stroke-dasharray:none;stroke-opacity:1"
           id="path1824" /></g><path
         d="m 320.051,309.634 c 0,-6.625 -5.375,-12 -12,-12 -6.629,0 -12,5.375 -12,12 0,6.629 5.371,12 12,12 6.625,0 12,-5.371 12,-12 z"
         style="fill:#000000;fill-opacity:1;fill-rule:nonzero;stroke:none"
         id="path1826" /><g
         id="g1828"
         transform="matrix(1,0,0,-1,0,356.075)"><path
           d="m 320.051,46.441 c 0,6.625 -5.375,12 -12,12 -6.629,0 -12,-5.375 -12,-12 0,-6.629 5.371,-12 12,-12 6.625,0 12,5.371 12,12 z"
           style="fill:none;stroke:#000000;stroke-width:1.6;stroke-linecap:round;stroke-linejoin:miter;stroke-miterlimit:4;stroke-dasharray:none;stroke-opacity:1"
           id="path1830" /></g><path
         d="m 158.449,264.036 c 0,-6.629 -5.371,-12 -12,-12 -6.625,0 -12,5.371 -12,12 0,6.625 5.375,12 12,12 6.629,0 12,-5.375 12,-12 z"
         style="fill:#000000;fill-opacity:1;fill-rule:nonzero;stroke:none"
         id="path1832" /><g
         id="g1834"
         transform="matrix(1,0,0,-1,0,356.075)"><path
           d="m 158.449,92.039 c 0,6.629 -5.371,12 -12,12 -6.625,0 -12,-5.371 -12,-12 0,-6.625 5.375,-12 12,-12 6.629,0 12,5.375 12,12 z"
           style="fill:none;stroke:#000000;stroke-width:1.6;stroke-linecap:round;stroke-linejoin:miter;stroke-miterlimit:4;stroke-dasharray:none;stroke-opacity:1"
           id="path1836" /></g><path
         d="m 198.449,96.03601 c 0,-6.629 -5.371,-12 -12,-12 -6.625,0 -12,5.371 -12,12 0,6.62499 5.375,11.99999 12,11.99999 6.629,0 12,-5.375 12,-11.99999 z"
         style="fill:#000000;fill-opacity:1;fill-rule:nonzero;stroke:none"
         id="path1838" /><g
         id="g1840"
         transform="matrix(1,0,0,-1,0,356.075)"><path
           d="m 198.449,260.039 c 0,6.629 -5.371,12 -12,12 -6.625,0 -12,-5.371 -12,-12 0,-6.625 5.375,-12 12,-12 6.629,0 12,5.375 12,12 z"
           style="fill:none;stroke:#000000;stroke-width:1.6;stroke-linecap:round;stroke-linejoin:miter;stroke-miterlimit:4;stroke-dasharray:none;stroke-opacity:1"
           id="path1842" /></g><path
         d="m 289.648,150.434 c 0,-6.625 -5.371,-12 -12,-12 -6.625,0 -12,5.375 -12,12 0,6.629 5.375,12 12,12 6.629,0 12,-5.371 12,-12 z"
         style="fill:#0000ff;fill-opacity:1;fill-rule:nonzero;stroke:none"
         id="path1844" /><g
         id="g1846"
         transform="matrix(1,0,0,-1,0,356.075)"><path
           d="m 289.648,205.641 c 0,6.625 -5.371,12 -12,12 -6.625,0 -12,-5.375 -12,-12 0,-6.629 5.375,-12 12,-12 6.629,0 12,5.371 12,12 z"
           style="fill:none;stroke:#000000;stroke-width:1.6;stroke-linecap:round;stroke-linejoin:miter;stroke-miterlimit:4;stroke-dasharray:none;stroke-opacity:1"
           id="path1848" /></g><path
         d="m 119.25,166.434 c 0,-6.625 -5.371,-12 -12,-12 -6.629,0 -12,5.375 -12,12 0,6.629 5.371,12 12,12 6.629,0 12,-5.371 12,-12 z"
         style="fill:#ff0000;fill-opacity:1;fill-rule:nonzero;stroke:#ff00aa;stroke-width:0.99975002;stroke-miterlimit:4;stroke-dasharray:none;stroke-opacity:1"
         id="path1850" /><g
         id="g1852"
         transform="matrix(1,0,0,-1,0,356.075)"><path
           d="m 119.25,189.641 c 0,6.625 -5.371,12 -12,12 -6.629,0 -12,-5.375 -12,-12 0,-6.629 5.371,-12 12,-12 6.629,0 12,5.371 12,12 z"
           style="fill:none;stroke:#000000;stroke-width:1.6;stroke-linecap:round;stroke-linejoin:miter;stroke-miterlimit:4;stroke-dasharray:none;stroke-opacity:1"
           id="path1854" /></g><path
         d="m 264.852,253.634 c 0,-6.625 -5.375,-12 -12,-12 -6.629,0 -12,5.375 -12,12 0,6.629 5.371,12 12,12 6.625,0 12,-5.371 12,-12 z"
         style="fill:#0000ff;fill-opacity:1;fill-rule:nonzero;stroke:#0000ff;stroke-opacity:1"
         id="path1856" /><g
         id="g1858"
         transform="matrix(1,0,0,-1,0,356.075)"><path
           d="m 264.852,102.441 c 0,6.625 -5.375,12 -12,12 -6.629,0 -12,-5.375 -12,-12 0,-6.629 5.371,-12 12,-12 6.625,0 12,5.371 12,12 z"
           style="fill:none;stroke:#000000;stroke-width:1.6;stroke-linecap:round;stroke-linejoin:miter;stroke-miterlimit:4;stroke-dasharray:none;stroke-opacity:1"
           id="path1860" /></g></g></g></svg>
